<?xml version="1.0" encoding="UTF-8"?>
<svg id="Layer_1" data-name="Layer 1" xmlns="http://www.w3.org/2000/svg" viewBox="0 0 2707.5 3512">
  <g>
    <path d="M276.66,3130.74c29.85,20.99,74.26,31.49,133.25,31.49,28.79,0,53.02-2.95,72.68-8.86,19.66-5.91,35.46-13.78,47.4-23.62,11.94-9.84,20.36-21.48,25.28-34.93,4.92-13.45,7.37-27.72,7.37-42.81,0-11.15-1.76-22.14-5.27-32.97-3.51-10.82-9.83-20.83-18.96-30.01-9.13-9.18-21.42-17.22-36.87-24.11-15.45-6.89-35.11-12.3-58.99-16.24l-95.86-16.73c-37.92-6.56-71.63-14.76-101.12-24.6-29.5-9.84-54.25-22.8-74.27-38.87-20.01-16.07-35.11-35.76-45.29-59.04-10.18-23.29-15.27-51.66-15.27-85.12s7.2-62.65,21.59-87.58c14.4-24.93,34.24-45.75,59.52-62.49,25.28-16.73,55.3-29.19,90.06-37.39,34.76-8.2,72.51-12.3,113.24-12.3,51.97,0,95.51,5.58,130.62,16.73,35.11,11.16,63.55,25.75,85.33,43.79,21.77,18.04,38.27,38.87,49.51,62.49,11.24,23.62,18.96,48.22,23.17,73.8l-120.08,17.71c-9.83-39.36-26.86-68.55-51.09-87.58-24.23-19.02-62.68-28.54-115.35-28.54-30.2,0-55.3,2.46-75.32,7.38-20.02,4.92-36.17,11.81-48.46,20.66-12.29,8.86-21.07,19.02-26.33,30.5-5.27,11.48-7.9,23.45-7.9,35.92,0,30.83,8.95,53.79,26.86,68.88,17.91,15.09,49.33,26.89,94.28,35.42l104.29,18.7c79.36,13.77,137.64,37.23,174.86,70.36,37.22,33.13,55.83,80.85,55.83,143.17,0,29.52-5.79,56.91-17.38,82.16-11.59,25.26-29.32,47.24-53.2,65.93-23.88,18.7-53.55,33.46-89.01,44.28-35.46,10.83-76.72,16.23-123.77,16.23-96.21,0-171.7-18.86-226.48-56.58-54.78-37.72-84.97-96.27-90.59-175.65h128.51c5.62,45.92,23.35,79.38,53.2,100.37Z" style="fill: #3e004c; stroke-width: 0px;"/>
    <path d="M957.69,2645.61v-103.32h602.54v103.32h-237.01v599.28h-127.46v-599.28h-238.06Z" style="fill: #3e004c; stroke-width: 0px;"/>
    <path d="M2025.8,2542.28l213.84,558.93,220.16-558.93h149.58v702.6h-116.93v-510.71l-206.46,510.71h-101.13l-199.09-509.73v509.73h-114.82v-702.6h154.85Z" style="fill: #3e004c; stroke-width: 0px;"/>
  </g>
  <g>
    <g>
      <path d="M1145.38,1876.15c-38.41,11.73-287.27-12.89-446.32-174.13-63.71-64.57-105.05-144.56-122.85-237.77-39.02-204.45,5.89-383.63,50.44-497.95,49.32-126.58,121.8-223.46,121.8-223.46,0,0-11.63,182.67,151.02,350.53,21.61,22.29,44.73,44.5,67.1,65.97,11.8,11.33,24,23.04,35.93,34.72,64.7,63.37,137.23,139.59,175.6,243.73,71,192.67-10.99,403.83-10.99,403.83-140.76-81.33-257.61-205.71-337.54-363.79-20.27-40.11-35.89-77.63-47.8-110.28,10.15,36.64,26.3,79.04,45.81,126.48,90.28,219.61,317.8,382.12,317.8,382.12ZM735.67,782.2c-19.31,28.07-61.69,94.87-98.12,188.35-43.99,112.89-88.35,289.79-49.85,491.51,17.36,90.89,57.63,168.86,119.69,231.75,137.5,139.39,341.44,167.57,405.33,173.08-131.17-99.36-230.64-223.1-295.81-368.05-60.64-134.91-63.2-255.45-63.93-266.95,0,0,25.51,118.92,87.03,240.69,77.67,153.61,185.85,272.08,321.62,352.21,95.75-329.47-24.46-482.44-167.32-622.36-11.89-11.63-24.07-23.33-35.85-34.64-22.44-21.55-45.64-43.82-67.4-66.27-135.31-139.65-153.57-271.45-155.4-319.31Z" style="fill: #470054; stroke-width: 0px;"/>
      <path d="M832.44,1887.87c-72.07,0-140.44-17.66-209.46-53.5-56.31-29.21-107.58-67.29-157.16-104.12-22.84-16.97-46.47-34.51-69.95-50.68-168.24-115.8-341.3-86.99-341.3-86.99,0,0,205.04-207.33,488.95-255.36l-.9,7.3c-.98,53.65,3.4,113.2,13.55,159.59,2.77,12.67,8.2,28.13,8.2,28.13,0,0-63.23-2.63-95.87-8.24,61.37,17.31,99.86,21.11,99.86,21.11,26.62,70.6,66.85,133.74,118.15,183.76,93.69,91.38,271.51,136.57,271.51,136.57-24.66,16.69-88.65,22.43-125.59,22.43ZM125.87,1575.24c59.22,0,160.58,14.81,276.64,94.69,23.65,16.29,47.36,33.9,70.29,50.93,49.21,36.55,100.09,74.35,155.57,103.13,93.88,48.75,186.53,63,289.5,44.12-90.46-21.76-174.67-67.62-239.51-130.87-51.78-50.49-91.81-112.02-119.02-182.92-74.22-12.84-152.27-47.66-152.27-47.66,32.07,9.48,110.01,13,141.34,13.78-.16-.59-.32-1.18-.48-1.75-1.81-6.61-2.93-10.74-3.24-12.43-9.68-50.74-14.34-102.8-13.85-154.81-237.33,42.31-397.12,182.49-441.8,225.88,9.19-1.1,21.62-2.08,36.83-2.08Z" style="fill: #470054; stroke-width: 0px;"/>
    </g>
    <polygon points="2642.92 2261.55 101.34 2261.55 212.96 2068.21 238.38 2082.89 152.18 2232.2 2592.08 2232.2 1372.13 119.19 970.49 814.83 945.07 800.16 1372.13 60.48 2642.92 2261.55" style="fill: #470054; stroke-width: 0px;"/>
    <polygon points="1211.84 1027.17 1202.22 1021.72 1419.42 637.47 1485.9 770.05 1624.22 537.12 1633.72 542.77 1485.08 793.08 1418.83 660.97 1211.84 1027.17" style="fill: #470054; stroke-width: 0px;"/>
    <path d="M949.48,1073.55l422.65-723.83,1155.72,2009.54H198.74l313.7-537.24s233.37,197.96,486.72,65.85c65.38,29.99,156.96,27.26,207.88,16.37-52.6-23.16-75.75-61.29-75.75-61.29,0,0,40.86,44.98,64.69,35.72,23.16-50.91,100.84-237.14,11.07-492.02-58.05-164.81-257.56-313.09-257.56-313.09Z" style="fill: #470054; opacity: .09; stroke-width: 0px;"/>
  </g>
  <text transform="translate(101.34 3465.68)" style="fill: #3e004c; font-family: AktivGrotesk-Medium, AktivGrotesk-Medium; font-size: 126.87px; font-weight: 500;"><tspan x="0" y="0" style="letter-spacing: .09em;">S</tspan><tspan x="93.63" y="0" style="letter-spacing: .11em;">TR</tspan><tspan x="279.24" y="0" style="letter-spacing: .12em;">E</tspan><tspan x="369.94" y="0" style="letter-spacing: .12em;">E</tspan><tspan x="461.8" y="0" style="letter-spacing: .11em;">AMS &amp; MOUN</tspan><tspan x="1394.9" y="0" style="letter-spacing: 0em;">T</tspan><tspan x="1472.42" y="0" style="letter-spacing: .11em;">AINS (</tspan><tspan x="1909.6" y="0" style="letter-spacing: .09em;">P</tspan><tspan x="2001.84" y="0" style="letter-spacing: .13em;">V</tspan><tspan x="2105.49" y="0" style="letter-spacing: .09em;">T</tspan><tspan x="2194.8" y="0" xml:space="preserve" style="letter-spacing: .11em;"> )</tspan><tspan x="2285.38" y="0" style="letter-spacing: -.02em;">L</tspan><tspan x="2355.42" y="0" style="letter-spacing: .11em;">TD</tspan></text>
</svg>