<?xml version="1.0" encoding="UTF-8"?>
<svg id="Layer_1" data-name="Layer 1" xmlns="http://www.w3.org/2000/svg" viewBox="0 0 3899.5 982">
  <g>
    <path d="M1300.15,660.02c25.01,17.59,62.22,26.38,111.64,26.38,24.12,0,44.42-2.47,60.89-7.42,16.47-4.95,29.71-11.54,39.71-19.79,10-8.24,17.06-18,21.18-29.27,4.12-11.27,6.18-23.22,6.18-35.86,0-9.34-1.47-18.55-4.41-27.62-2.94-9.07-8.24-17.45-15.88-25.14-7.65-7.7-17.94-14.43-30.89-20.2-12.94-5.77-29.42-10.31-49.42-13.6l-80.31-14.01c-31.77-5.5-60.01-12.37-84.72-20.61-24.71-8.25-45.45-19.1-62.22-32.57-16.77-13.47-29.42-29.95-37.95-49.46-8.53-19.51-12.8-43.28-12.8-71.31s6.03-52.49,18.09-73.37c12.06-20.89,28.68-38.34,49.86-52.35,21.18-14.01,46.33-24.46,75.45-31.33,29.12-6.87,60.75-10.31,94.87-10.31,43.54,0,80.01,4.67,109.43,14.02,29.42,9.34,53.25,21.57,71.48,36.69,18.24,15.12,32.07,32.57,41.48,52.35,9.41,19.79,15.89,40.4,19.41,61.83l-100.6,14.84c-8.24-32.98-22.5-57.43-42.8-73.37-20.3-15.94-52.51-23.91-96.63-23.91-25.3,0-46.33,2.06-63.1,6.18-16.77,4.12-30.3,9.89-40.59,17.31-10.3,7.42-17.65,15.94-22.06,25.56-4.41,9.62-6.62,19.65-6.62,30.09,0,25.83,7.5,45.07,22.5,57.71,15,12.64,41.33,22.53,78.98,29.68l87.37,15.66c66.48,11.54,115.31,31.19,146.5,58.95,31.18,27.76,46.77,67.74,46.77,119.95,0,24.74-4.85,47.68-14.56,68.84-9.71,21.16-24.56,39.57-44.57,55.24-20,15.66-44.86,28.03-74.57,37.1-29.71,9.07-64.27,13.6-103.69,13.6-80.6,0-143.85-15.8-189.74-47.4-45.89-31.6-71.19-80.66-75.9-147.16h107.67c4.71,38.47,19.56,66.51,44.57,84.09Z" style="fill: #fff; stroke-width: 0px;"/>
    <path d="M2164.01,253.57v-86.56h504.79v86.56h-198.56v502.08h-106.78V253.57h-199.44Z" style="fill: #fff; stroke-width: 0px;"/>
    <path d="M3253.79,167.01l179.15,468.28,184.44-468.28h125.31v588.64h-97.96v-427.88l-172.97,427.88h-84.72l-166.79-427.06v427.06h-96.19V167.01h129.73Z" style="fill: #fff; stroke-width: 0px;"/>
  </g>
  <text transform="translate(1186.94 898.02)" style="fill: #fff; font-family: AktivGrotesk-Medium, AktivGrotesk-Medium; font-size: 84.2px; font-weight: 500;"><tspan x="0" y="0" style="letter-spacing: .46em;">S</tspan><tspan x="92.54" y="0" style="letter-spacing: .47em;">TR</tspan><tspan x="276.51" y="0" style="letter-spacing: .48em;">E</tspan><tspan x="367.11" y="0" style="letter-spacing: .49em;">E</tspan><tspan x="458.47" y="0" style="letter-spacing: .47em;">AMS &amp; MOUN</tspan><tspan x="1381.71" y="0" style="letter-spacing: .36em;">T</tspan><tspan x="1463.56" y="0" style="letter-spacing: .47em;">AINS (</tspan><tspan x="1936.08" y="0" style="letter-spacing: .46em;">P</tspan><tspan x="2027.69" y="0" style="letter-spacing: .5em;">V</tspan><tspan x="2126.88" y="0" style="letter-spacing: .46em;">T</tspan><tspan x="2216.55" y="0" xml:space="preserve" style="letter-spacing: .47em;"> )</tspan><tspan x="2337.46" y="0" style="letter-spacing: .34em;">L</tspan><tspan x="2414.34" y="0" style="letter-spacing: .47em;">TD</tspan></text>
  <g>
    <g>
      <path d="M472.21,741.15c-14.82,4.52-110.82-4.97-172.18-67.17-24.58-24.91-40.52-55.77-47.39-91.72-15.05-78.87,2.27-147.99,19.46-192.09,19.03-48.83,46.98-86.2,46.98-86.2,0,0-4.49,70.47,58.26,135.22,8.33,8.6,17.26,17.17,25.88,25.45,4.55,4.37,9.26,8.89,13.86,13.39,24.96,24.45,52.94,53.85,67.74,94.02,27.39,74.32-4.24,155.79-4.24,155.79-54.3-31.37-99.38-79.36-130.21-140.34-7.82-15.47-13.85-29.95-18.44-42.54,3.92,14.14,10.15,30.49,17.67,48.79,34.83,84.72,122.6,147.41,122.6,147.41ZM314.15,319.14c-7.45,10.83-23.8,36.6-37.85,72.66-16.97,43.55-34.08,111.79-19.23,189.61,6.7,35.06,22.23,65.14,46.17,89.4,53.04,53.77,131.72,64.64,156.36,66.77-50.6-38.33-88.97-86.06-114.11-141.98-23.39-52.04-24.38-98.54-24.66-102.98,0,0,9.84,45.88,33.58,92.85,29.96,59.26,71.69,104.96,124.07,135.87,36.94-127.1-9.44-186.11-64.55-240.08-4.59-4.49-9.28-9-13.83-13.36-8.66-8.31-17.61-16.91-26-25.56-52.2-53.87-59.24-104.72-59.95-123.18Z" style="fill: #fff; stroke-width: 0px;"/>
      <path d="M351.48,745.67c-27.8,0-54.18-6.81-80.8-20.64-21.72-11.27-41.5-25.96-60.63-40.17-8.81-6.55-17.92-13.31-26.98-19.55-64.9-44.67-131.66-33.56-131.66-33.56,0,0,79.1-79.98,188.62-98.51l-.35,2.81c-.38,20.7,1.31,43.67,5.23,61.57,1.07,4.89,3.16,10.85,3.16,10.85,0,0-24.39-1.01-36.98-3.18,23.68,6.68,38.52,8.14,38.52,8.14,10.27,27.24,25.79,51.59,45.58,70.89,36.14,35.25,104.74,52.68,104.74,52.68-9.51,6.44-34.2,8.65-48.45,8.65ZM78.91,625.07c22.85,0,61.95,5.71,106.72,36.53,9.12,6.28,18.27,13.08,27.11,19.65,18.98,14.1,38.61,28.68,60.01,39.78,36.21,18.81,71.96,24.3,111.68,17.02-34.9-8.39-67.38-26.09-92.4-50.48-19.97-19.48-35.42-43.21-45.91-70.56-28.63-4.95-58.74-18.39-58.74-18.39,12.37,3.66,42.44,5.02,54.52,5.32-.06-.23-.12-.45-.19-.68-.7-2.55-1.13-4.14-1.25-4.8-3.73-19.57-5.53-39.66-5.34-59.72-91.56,16.32-153.19,70.4-170.43,87.14,3.54-.43,8.34-.8,14.21-.8Z" style="fill: #fff; stroke-width: 0px;"/>
    </g>
    <polygon points="1049.91 889.82 69.45 889.82 112.51 815.24 122.31 820.9 89.06 878.5 1030.29 878.5 559.67 63.37 404.74 331.73 394.93 326.07 559.67 40.72 1049.91 889.82" style="fill: #fff; stroke-width: 0px;"/>
    <polygon points="497.84 413.64 494.13 411.54 577.92 263.3 603.57 314.45 656.93 224.6 660.59 226.77 603.25 323.33 577.69 272.37 497.84 413.64" style="fill: #fff; stroke-width: 0px;"/>
    <path d="M396.63,431.53l163.04-279.23,445.84,775.21H107.02l121.01-207.25s90.03,76.36,187.76,25.4c25.22,11.57,60.55,10.52,80.19,6.31-20.29-8.93-29.22-23.65-29.22-23.65,0,0,15.76,17.35,24.95,13.78,8.93-19.64,38.9-91.48,4.27-189.81-22.39-63.58-99.36-120.78-99.36-120.78Z" style="fill: #fff; opacity: .09; stroke-width: 0px;"/>
  </g>
</svg>